<svg width="56.000000" height="56.000000" viewBox="0 0 56 56" fill="none" xmlns="http://www.w3.org/2000/svg" xmlns:xlink="http://www.w3.org/1999/xlink">
	<desc>
			Created with Pixso.
	</desc>
	<defs/>
	<path id="path" d="M27.66 34.33C31.34 34.33 34.33 31.34 34.33 27.66C34.33 23.98 31.34 21 27.66 21C23.98 21 20.99 23.98 20.99 27.66C20.99 31.34 23.98 34.33 27.66 34.33Z" fill="#000000" fill-opacity="0" fill-rule="nonzero"/>
	<path id="path" d="M34.33 27.66C34.33 23.98 31.34 21 27.66 21C23.98 21 20.99 23.98 20.99 27.66C20.99 31.34 23.98 34.33 27.66 34.33C31.34 34.33 34.33 31.34 34.33 27.66Z" stroke="#000000" stroke-opacity="1.000000" stroke-width="3.000000" stroke-linejoin="round"/>
	<path id="path" d="M26.98 52.85L27 52.83C27.84 52.83 28.5 53.49 28.5 54.33C28.5 55.17 27.84 55.83 27 55.83L26.98 55.81L26.98 52.85ZM26.98 19.52L27 19.5C27.84 19.5 28.5 20.16 28.5 21C28.5 21.84 27.84 22.5 27 22.5L26.98 22.48L26.98 19.52Z" fill="#000000" fill-opacity="0" fill-rule="nonzero"/>
	<path id="path" d="M27 54.33C17.79 54.33 10.33 46.87 10.33 37.66C10.33 28.46 17.79 21 27 21" stroke="#000000" stroke-opacity="1.000000" stroke-width="3.000000" stroke-linejoin="round" stroke-linecap="round"/>
	<path id="path" d="M52.85 27.02L52.83 27C52.83 26.16 53.49 25.5 54.33 25.5C55.17 25.5 55.83 26.16 55.83 27L55.81 27.02L52.85 27.02ZM19.51 27.02L19.49 27C19.49 26.16 20.15 25.5 20.99 25.5C21.83 25.5 22.49 26.16 22.49 27L22.47 27.02L19.51 27.02Z" fill="#000000" fill-opacity="0" fill-rule="nonzero"/>
	<path id="path" d="M54.33 27C54.33 36.2 46.87 43.66 37.66 43.66C28.46 43.66 20.99 36.2 20.99 27" stroke="#000000" stroke-opacity="1.000000" stroke-width="3.000000" stroke-linejoin="round" stroke-linecap="round"/>
	<path id="path" d="M27.02 35.81L27 35.83C26.16 35.83 25.5 35.17 25.5 34.33C25.5 33.49 26.16 32.83 27 32.83L27.02 32.85L27.02 35.81ZM27.02 2.48L27 2.5C26.16 2.5 25.5 1.84 25.5 1C25.5 0.16 26.16 -0.5 27 -0.5L27.02 -0.48L27.02 2.48Z" fill="#000000" fill-opacity="0" fill-rule="nonzero"/>
	<path id="path" d="M27 34.33C36.2 34.33 43.66 26.87 43.66 17.66C43.66 8.46 36.2 1 27 1" stroke="#000000" stroke-opacity="1.000000" stroke-width="3.000000" stroke-linejoin="round" stroke-linecap="round"/>
	<path id="path" d="M35.81 26.98L35.83 27C35.83 27.84 35.17 28.5 34.33 28.5C33.49 28.5 32.83 27.84 32.83 27L32.85 26.98L35.81 26.98ZM2.47 26.98L2.49 27C2.49 27.84 1.83 28.5 0.99 28.5C0.15 28.5 -0.51 27.84 -0.51 27L-0.49 26.98L2.47 26.98Z" fill="#000000" fill-opacity="0" fill-rule="nonzero"/>
	<path id="path" d="M34.33 27C34.33 17.79 26.87 10.33 17.66 10.33C8.46 10.33 0.99 17.79 0.99 27" stroke="#000000" stroke-opacity="1.000000" stroke-width="3.000000" stroke-linejoin="round" stroke-linecap="round"/>
</svg>
