<svg width="35.000000" height="31.000000" viewBox="0 0 35 31" fill="none" xmlns="http://www.w3.org/2000/svg" xmlns:xlink="http://www.w3.org/1999/xlink">
	<desc>
			Created with Pixso.
	</desc>
	<defs/>
	<path id="path" d="M32.87 12.89C33.09 11.54 33.02 10.16 32.65 8.83C32.17 7.07 31.17 5.4 29.65 4.03C28.14 2.66 26.3 1.75 24.37 1.31C22.9 0.97 21.38 0.91 19.89 1.11" stroke="#E55C22" stroke-opacity="1.000000" stroke-width="2.500000" stroke-linejoin="round" stroke-linecap="round"/>
	<path id="path" d="M26.2 12.25C26.44 10.8 25.95 9.28 24.72 8.16C23.49 7.05 21.81 6.6 20.21 6.81" stroke="#E55C22" stroke-opacity="1.000000" stroke-width="2.500000" stroke-linejoin="round" stroke-linecap="round"/>
	<path id="path" d="M10.34 4.3L12.49 7.81C12.77 8.27 12.78 8.83 12.52 9.3L10.45 13.05C10.45 13.05 11.05 15.85 13.56 18.13C16.07 20.41 19.15 20.95 19.15 20.95L23.29 19.07C23.81 18.83 24.42 18.84 24.93 19.1L28.81 21.06C29.36 21.34 29.71 21.87 29.71 22.45L29.71 26.5C29.71 28.55 27.6 30.04 25.45 29.38C21.04 28.03 14.18 25.46 9.84 21.51C5.5 17.57 2.66 11.35 1.17 7.34C0.44 5.39 2.08 3.48 4.35 3.48L8.81 3.48C9.44 3.48 10.03 3.79 10.34 4.3Z" stroke="#E55C22" stroke-opacity="1.000000" stroke-width="2.500000" stroke-linejoin="round"/>
</svg>
