<svg width="56.000000" height="56.000000" viewBox="0 0 56 56" fill="none" xmlns="http://www.w3.org/2000/svg" xmlns:xlink="http://www.w3.org/1999/xlink">
	<desc>
			Created with Pixso.
	</desc>
	<defs/>
	<path id="path" d="M27.66 38.33C42.39 38.33 54.33 33.55 54.33 27.66C54.33 21.77 42.39 17 27.66 17C12.93 17 1 21.77 1 27.66C1 33.55 12.93 38.33 27.66 38.33Z" fill="#000000" fill-opacity="0" fill-rule="nonzero"/>
	<path id="path" d="M54.33 27.66C54.33 21.77 42.39 17 27.66 17C12.93 17 1 21.77 1 27.66C1 33.55 12.93 38.33 27.66 38.33C42.39 38.33 54.33 33.55 54.33 27.66Z" stroke="#000000" stroke-opacity="1.000000" stroke-width="3.000000" stroke-linejoin="round"/>
	<path id="path" d="M38.33 27.66C38.33 42.39 33.55 54.33 27.66 54.33C21.77 54.33 16.99 42.39 16.99 27.66C16.99 12.93 21.77 1 27.66 1C33.55 1 38.33 12.93 38.33 27.66Z" fill="#000000" fill-opacity="0" fill-rule="nonzero"/>
	<path id="path" d="M27.66 54.33C21.77 54.33 16.99 42.39 16.99 27.66C16.99 12.93 21.77 1 27.66 1C33.55 1 38.33 12.93 38.33 27.66C38.33 42.39 33.55 54.33 27.66 54.33Z" stroke="#000000" stroke-opacity="1.000000" stroke-width="3.000000" stroke-linejoin="round"/>
	<circle id="circle" cx="27.666687" cy="27.666687" r="26.666668" fill="#000000" fill-opacity="0"/>
	<circle id="circle" cx="27.666687" cy="27.666687" r="26.666668" stroke="#000000" stroke-opacity="1.000000" stroke-width="3.000000" stroke-linejoin="round"/>
</svg>
