<svg width="32.000000" height="27.000000" viewBox="0 0 32 27" fill="none" xmlns="http://www.w3.org/2000/svg" xmlns:xlink="http://www.w3.org/1999/xlink">
	<desc>
			Created with Pixso.
	</desc>
	<defs/>
	<path id="path" d="M29.27 0.23C29.27 0.23 32.23 -0.92 31.98 1.88C31.9 3.03 31.16 7.07 30.58 11.44L28.61 24.39C28.61 24.39 28.44 26.28 26.96 26.61C25.48 26.94 23.26 25.46 22.85 25.13C22.52 24.88 16.69 21.17 14.63 19.36C14.05 18.86 13.4 17.87 14.71 16.72L23.35 8.48C24.33 7.49 25.32 5.18 21.21 7.98L9.7 15.81C9.7 15.81 8.38 16.64 5.91 15.9L0.57 14.25C0.57 14.25 -1.4 13.01 1.97 11.77C10.19 7.9 20.3 3.94 29.27 0.23Z" fill="#E55C22" fill-opacity="1.000000" fill-rule="nonzero"/>
</svg>
